<?xml version="1.0" encoding="iso-8859-1"?>
<!-- Generator: Adobe Illustrator 19.0.0, SVG Export Plug-In . SVG Version: 6.00 Build 0)  -->
<svg version="1.1" id="Layer_1" xmlns="http://www.w3.org/2000/svg" xmlns:xlink="http://www.w3.org/1999/xlink" x="0px" y="0px"
	 viewBox="0 0 504 504" style="enable-background:new 0 0 504 504;" xml:space="preserve">
<circle style="fill:#FF7058;" cx="252" cy="252" r="252"/>
<g>
	<path style="fill:#324A5E;" d="M339.7,179.3h-16.6c-2.3,0-4,2-4,4.5c0.6,21.9,5.9,39,12.3,39s11.6-17.1,12.3-39
		C343.7,181.3,342,179.3,339.7,179.3z"/>
	<path style="fill:#324A5E;" d="M396.3,207.9h-16.6c-2.3,0-4,2-4,4.5c0.6,21.9,5.9,39,12.3,39s11.6-17.1,12.3-39
		C400.3,210,398.5,207.9,396.3,207.9z"/>
	<path style="fill:#324A5E;" d="M164.3,179.3h16.6c2.3,0,4,2,4,4.5c-0.6,21.9-5.9,39-12.3,39c-6.4,0-11.6-17.1-12.3-39
		C160.2,181.3,162,179.3,164.3,179.3z"/>
	<path style="fill:#324A5E;" d="M107.7,207.9h16.6c2.3,0,4,2,4,4.5c-0.6,21.9-5.9,39-12.3,39s-11.6-17.1-12.3-39
		C103.7,210,105.5,207.9,107.7,207.9z"/>
</g>
<g>
	<polygon style="fill:#84DBFF;" points="280.3,346.8 267,388.9 324.1,409.4 321.9,384.6 	"/>
	<polygon style="fill:#84DBFF;" points="223.7,346.8 237,388.9 179.9,409.4 182.1,384.6 	"/>
	<polygon style="fill:#84DBFF;" points="284.6,175.1 293.4,269.3 430.9,300.6 430.9,252.1 	"/>
	<polygon style="fill:#84DBFF;" points="219.4,175.1 210.6,269.3 73.1,300.6 73.1,252.1 	"/>
</g>
<ellipse style="fill:#FFFFFF;" cx="252" cy="242.8" rx="42.6" ry="180.9"/>
<rect x="247.9" y="341.3" style="fill:#324A5E;" width="8.2" height="42.4"/>
<g>
	<path style="fill:#84DBFF;" d="M236.3,121.6l3.8,11.7c2.9-2.3,6.1-3.7,9.5-4.2v-15.5C244.6,114.3,240,117.2,236.3,121.6z"/>
	<path style="fill:#84DBFF;" d="M276.1,147.4c0-7.9-1.9-15.1-5.1-20.9l-3.4,10.5c3.9,4.6,6.7,11,7.9,18.2
		C275.9,152.6,276.1,150,276.1,147.4z"/>
	<path style="fill:#84DBFF;" d="M254.3,113.6v15.5c3.4,0.5,6.6,1.9,9.5,4.2l3.8-11.7C264,117.2,259.4,114.3,254.3,113.6z"/>
	<path style="fill:#84DBFF;" d="M227.9,147.4c0,2.7,0.2,5.3,0.7,7.7c1.2-7.2,4-13.5,7.9-18.2l-3.4-10.5
		C229.8,132.2,227.9,139.5,227.9,147.4z"/>
</g>
<g>
</g>
<g>
</g>
<g>
</g>
<g>
</g>
<g>
</g>
<g>
</g>
<g>
</g>
<g>
</g>
<g>
</g>
<g>
</g>
<g>
</g>
<g>
</g>
<g>
</g>
<g>
</g>
<g>
</g>
</svg>
